<mxfile host="app.diagrams.net" agent="Mozilla/5.0 (Windows NT 10.0; Win64; x64) AppleWebKit/537.36 (KHTML, like Gecko) Chrome/130.0.0.0 Safari/537.36" version="24.8.3">
  <diagram id="C5RBs43oDa-KdzZeNtuy" name="Page-1">
    <mxGraphModel dx="926" dy="457" grid="1" gridSize="10" guides="1" tooltips="1" connect="1" arrows="1" fold="1" page="1" pageScale="1" pageWidth="827" pageHeight="1169" math="0" shadow="0">
      <root>
        <mxCell id="WIyWlLk6GJQsqaUBKTNV-0" />
        <mxCell id="WIyWlLk6GJQsqaUBKTNV-1" parent="WIyWlLk6GJQsqaUBKTNV-0" />
        <mxCell id="xai1oZRnohtGifXalHaM-0" value="Пользователь" style="rounded=0;whiteSpace=wrap;html=1;labelBackgroundColor=none;" vertex="1" parent="WIyWlLk6GJQsqaUBKTNV-1">
          <mxGeometry x="590" y="150" width="120" height="60" as="geometry" />
        </mxCell>
        <mxCell id="xai1oZRnohtGifXalHaM-1" value="Фильм" style="rounded=0;whiteSpace=wrap;html=1;labelBackgroundColor=none;" vertex="1" parent="WIyWlLk6GJQsqaUBKTNV-1">
          <mxGeometry x="260" y="150" width="120" height="60" as="geometry" />
        </mxCell>
        <mxCell id="xai1oZRnohtGifXalHaM-2" value="Кинотеатр" style="rounded=0;whiteSpace=wrap;html=1;labelBackgroundColor=none;" vertex="1" parent="WIyWlLk6GJQsqaUBKTNV-1">
          <mxGeometry x="910" y="150" width="120" height="60" as="geometry" />
        </mxCell>
        <mxCell id="xai1oZRnohtGifXalHaM-4" value="&amp;nbsp;смотрит (на)" style="rhombus;whiteSpace=wrap;html=1;labelBackgroundColor=none;" vertex="1" parent="WIyWlLk6GJQsqaUBKTNV-1">
          <mxGeometry x="760" y="160" width="100" height="40" as="geometry" />
        </mxCell>
        <mxCell id="xai1oZRnohtGifXalHaM-5" value="смотрит" style="rhombus;whiteSpace=wrap;html=1;labelBackgroundColor=none;" vertex="1" parent="WIyWlLk6GJQsqaUBKTNV-1">
          <mxGeometry x="440" y="160" width="100" height="40" as="geometry" />
        </mxCell>
        <mxCell id="xai1oZRnohtGifXalHaM-8" value="" style="endArrow=none;html=1;rounded=0;exitX=1;exitY=0.5;exitDx=0;exitDy=0;entryX=0;entryY=0.5;entryDx=0;entryDy=0;startArrow=ERmany;startFill=0;" edge="1" parent="WIyWlLk6GJQsqaUBKTNV-1" source="xai1oZRnohtGifXalHaM-1" target="xai1oZRnohtGifXalHaM-5">
          <mxGeometry width="50" height="50" relative="1" as="geometry">
            <mxPoint x="600" y="240" as="sourcePoint" />
            <mxPoint x="670" y="240" as="targetPoint" />
          </mxGeometry>
        </mxCell>
        <mxCell id="xai1oZRnohtGifXalHaM-9" value="" style="endArrow=ERmany;html=1;rounded=0;exitX=1;exitY=0.5;exitDx=0;exitDy=0;entryX=0;entryY=0.5;entryDx=0;entryDy=0;endFill=0;" edge="1" parent="WIyWlLk6GJQsqaUBKTNV-1" source="xai1oZRnohtGifXalHaM-5" target="xai1oZRnohtGifXalHaM-0">
          <mxGeometry width="50" height="50" relative="1" as="geometry">
            <mxPoint x="390" y="190" as="sourcePoint" />
            <mxPoint x="450" y="190" as="targetPoint" />
          </mxGeometry>
        </mxCell>
        <mxCell id="xai1oZRnohtGifXalHaM-10" value="" style="endArrow=none;html=1;rounded=0;exitX=1;exitY=0.5;exitDx=0;exitDy=0;entryX=0;entryY=0.5;entryDx=0;entryDy=0;startArrow=ERmany;startFill=0;" edge="1" parent="WIyWlLk6GJQsqaUBKTNV-1" source="xai1oZRnohtGifXalHaM-0" target="xai1oZRnohtGifXalHaM-4">
          <mxGeometry width="50" height="50" relative="1" as="geometry">
            <mxPoint x="400" y="200" as="sourcePoint" />
            <mxPoint x="460" y="200" as="targetPoint" />
          </mxGeometry>
        </mxCell>
        <mxCell id="xai1oZRnohtGifXalHaM-11" value="" style="endArrow=none;html=1;rounded=0;exitX=0;exitY=0.5;exitDx=0;exitDy=0;entryX=1;entryY=0.5;entryDx=0;entryDy=0;startArrow=ERmany;startFill=0;" edge="1" parent="WIyWlLk6GJQsqaUBKTNV-1" source="xai1oZRnohtGifXalHaM-2" target="xai1oZRnohtGifXalHaM-4">
          <mxGeometry width="50" height="50" relative="1" as="geometry">
            <mxPoint x="720" y="190" as="sourcePoint" />
            <mxPoint x="770" y="190" as="targetPoint" />
          </mxGeometry>
        </mxCell>
        <mxCell id="xai1oZRnohtGifXalHaM-15" value="" style="endArrow=none;html=1;rounded=0;exitX=0.5;exitY=0;exitDx=0;exitDy=0;startArrow=ERmany;startFill=0;" edge="1" parent="WIyWlLk6GJQsqaUBKTNV-1" source="xai1oZRnohtGifXalHaM-1" target="xai1oZRnohtGifXalHaM-16">
          <mxGeometry width="50" height="50" relative="1" as="geometry">
            <mxPoint x="620" y="200" as="sourcePoint" />
            <mxPoint x="580" y="100" as="targetPoint" />
            <Array as="points">
              <mxPoint x="320" y="100" />
            </Array>
          </mxGeometry>
        </mxCell>
        <mxCell id="xai1oZRnohtGifXalHaM-17" style="edgeStyle=orthogonalEdgeStyle;rounded=0;orthogonalLoop=1;jettySize=auto;html=1;entryX=0.5;entryY=0;entryDx=0;entryDy=0;endArrow=ERmany;endFill=0;" edge="1" parent="WIyWlLk6GJQsqaUBKTNV-1" source="xai1oZRnohtGifXalHaM-16" target="xai1oZRnohtGifXalHaM-2">
          <mxGeometry relative="1" as="geometry">
            <mxPoint x="760" y="100" as="targetPoint" />
          </mxGeometry>
        </mxCell>
        <mxCell id="xai1oZRnohtGifXalHaM-16" value="(пользователь)&lt;div&gt;смотрит&lt;/div&gt;&lt;div&gt;(на)&lt;/div&gt;" style="rhombus;whiteSpace=wrap;html=1;" vertex="1" parent="WIyWlLk6GJQsqaUBKTNV-1">
          <mxGeometry x="580" y="70" width="140" height="60" as="geometry" />
        </mxCell>
        <mxCell id="xai1oZRnohtGifXalHaM-18" value="" style="endArrow=none;html=1;rounded=0;exitX=0.5;exitY=1;exitDx=0;exitDy=0;" edge="1" parent="WIyWlLk6GJQsqaUBKTNV-1" source="xai1oZRnohtGifXalHaM-1">
          <mxGeometry width="50" height="50" relative="1" as="geometry">
            <mxPoint x="620" y="310" as="sourcePoint" />
            <mxPoint x="320" y="490" as="targetPoint" />
          </mxGeometry>
        </mxCell>
        <mxCell id="xai1oZRnohtGifXalHaM-19" value="" style="endArrow=none;html=1;rounded=0;" edge="1" parent="WIyWlLk6GJQsqaUBKTNV-1" target="xai1oZRnohtGifXalHaM-20">
          <mxGeometry width="50" height="50" relative="1" as="geometry">
            <mxPoint x="320" y="250" as="sourcePoint" />
            <mxPoint x="370" y="250" as="targetPoint" />
          </mxGeometry>
        </mxCell>
        <mxCell id="xai1oZRnohtGifXalHaM-20" value="id" style="ellipse;whiteSpace=wrap;html=1;" vertex="1" parent="WIyWlLk6GJQsqaUBKTNV-1">
          <mxGeometry x="370" y="230" width="110" height="40" as="geometry" />
        </mxCell>
        <mxCell id="xai1oZRnohtGifXalHaM-22" value="" style="endArrow=none;html=1;rounded=0;" edge="1" parent="WIyWlLk6GJQsqaUBKTNV-1">
          <mxGeometry width="50" height="50" relative="1" as="geometry">
            <mxPoint x="320" y="310" as="sourcePoint" />
            <mxPoint x="380" y="310" as="targetPoint" />
          </mxGeometry>
        </mxCell>
        <mxCell id="xai1oZRnohtGifXalHaM-23" value="" style="endArrow=none;html=1;rounded=0;" edge="1" parent="WIyWlLk6GJQsqaUBKTNV-1">
          <mxGeometry width="50" height="50" relative="1" as="geometry">
            <mxPoint x="320" y="369.5" as="sourcePoint" />
            <mxPoint x="380" y="369.5" as="targetPoint" />
          </mxGeometry>
        </mxCell>
        <mxCell id="xai1oZRnohtGifXalHaM-24" value="" style="endArrow=none;html=1;rounded=0;" edge="1" parent="WIyWlLk6GJQsqaUBKTNV-1">
          <mxGeometry width="50" height="50" relative="1" as="geometry">
            <mxPoint x="320" y="429.5" as="sourcePoint" />
            <mxPoint x="380" y="429.5" as="targetPoint" />
          </mxGeometry>
        </mxCell>
        <mxCell id="xai1oZRnohtGifXalHaM-25" value="" style="endArrow=none;html=1;rounded=0;" edge="1" parent="WIyWlLk6GJQsqaUBKTNV-1">
          <mxGeometry width="50" height="50" relative="1" as="geometry">
            <mxPoint x="320" y="490" as="sourcePoint" />
            <mxPoint x="380" y="490" as="targetPoint" />
          </mxGeometry>
        </mxCell>
        <mxCell id="xai1oZRnohtGifXalHaM-26" value="название" style="ellipse;whiteSpace=wrap;html=1;" vertex="1" parent="WIyWlLk6GJQsqaUBKTNV-1">
          <mxGeometry x="370" y="290" width="110" height="40" as="geometry" />
        </mxCell>
        <mxCell id="xai1oZRnohtGifXalHaM-27" value="жанр" style="ellipse;whiteSpace=wrap;html=1;" vertex="1" parent="WIyWlLk6GJQsqaUBKTNV-1">
          <mxGeometry x="370" y="350" width="110" height="40" as="geometry" />
        </mxCell>
        <mxCell id="xai1oZRnohtGifXalHaM-30" value="год выпуска" style="ellipse;whiteSpace=wrap;html=1;" vertex="1" parent="WIyWlLk6GJQsqaUBKTNV-1">
          <mxGeometry x="370" y="410" width="110" height="40" as="geometry" />
        </mxCell>
        <mxCell id="xai1oZRnohtGifXalHaM-31" value="длительность" style="ellipse;whiteSpace=wrap;html=1;" vertex="1" parent="WIyWlLk6GJQsqaUBKTNV-1">
          <mxGeometry x="370" y="470" width="110" height="40" as="geometry" />
        </mxCell>
        <mxCell id="xai1oZRnohtGifXalHaM-32" value="" style="endArrow=none;html=1;rounded=0;" edge="1" parent="WIyWlLk6GJQsqaUBKTNV-1" target="xai1oZRnohtGifXalHaM-33">
          <mxGeometry width="50" height="50" relative="1" as="geometry">
            <mxPoint x="650" y="250" as="sourcePoint" />
            <mxPoint x="700" y="250" as="targetPoint" />
          </mxGeometry>
        </mxCell>
        <mxCell id="xai1oZRnohtGifXalHaM-33" value="id" style="ellipse;whiteSpace=wrap;html=1;" vertex="1" parent="WIyWlLk6GJQsqaUBKTNV-1">
          <mxGeometry x="700" y="230" width="110" height="40" as="geometry" />
        </mxCell>
        <mxCell id="xai1oZRnohtGifXalHaM-34" value="" style="endArrow=none;html=1;rounded=0;" edge="1" parent="WIyWlLk6GJQsqaUBKTNV-1">
          <mxGeometry width="50" height="50" relative="1" as="geometry">
            <mxPoint x="650" y="310" as="sourcePoint" />
            <mxPoint x="710" y="310" as="targetPoint" />
          </mxGeometry>
        </mxCell>
        <mxCell id="xai1oZRnohtGifXalHaM-35" value="" style="endArrow=none;html=1;rounded=0;" edge="1" parent="WIyWlLk6GJQsqaUBKTNV-1">
          <mxGeometry width="50" height="50" relative="1" as="geometry">
            <mxPoint x="650" y="369.5" as="sourcePoint" />
            <mxPoint x="710" y="369.5" as="targetPoint" />
          </mxGeometry>
        </mxCell>
        <mxCell id="xai1oZRnohtGifXalHaM-36" value="" style="endArrow=none;html=1;rounded=0;" edge="1" parent="WIyWlLk6GJQsqaUBKTNV-1">
          <mxGeometry width="50" height="50" relative="1" as="geometry">
            <mxPoint x="650" y="429.5" as="sourcePoint" />
            <mxPoint x="710" y="429.5" as="targetPoint" />
          </mxGeometry>
        </mxCell>
        <mxCell id="xai1oZRnohtGifXalHaM-37" value="" style="endArrow=none;html=1;rounded=0;" edge="1" parent="WIyWlLk6GJQsqaUBKTNV-1">
          <mxGeometry width="50" height="50" relative="1" as="geometry">
            <mxPoint x="650" y="490" as="sourcePoint" />
            <mxPoint x="710" y="490" as="targetPoint" />
          </mxGeometry>
        </mxCell>
        <mxCell id="xai1oZRnohtGifXalHaM-38" value="имя" style="ellipse;whiteSpace=wrap;html=1;" vertex="1" parent="WIyWlLk6GJQsqaUBKTNV-1">
          <mxGeometry x="700" y="290" width="110" height="40" as="geometry" />
        </mxCell>
        <mxCell id="xai1oZRnohtGifXalHaM-39" value="email" style="ellipse;whiteSpace=wrap;html=1;" vertex="1" parent="WIyWlLk6GJQsqaUBKTNV-1">
          <mxGeometry x="700" y="350" width="110" height="40" as="geometry" />
        </mxCell>
        <mxCell id="xai1oZRnohtGifXalHaM-40" value="страна" style="ellipse;whiteSpace=wrap;html=1;" vertex="1" parent="WIyWlLk6GJQsqaUBKTNV-1">
          <mxGeometry x="700" y="410" width="110" height="40" as="geometry" />
        </mxCell>
        <mxCell id="xai1oZRnohtGifXalHaM-41" value="тип подписки" style="ellipse;whiteSpace=wrap;html=1;" vertex="1" parent="WIyWlLk6GJQsqaUBKTNV-1">
          <mxGeometry x="700" y="470" width="110" height="40" as="geometry" />
        </mxCell>
        <mxCell id="xai1oZRnohtGifXalHaM-42" value="" style="endArrow=none;html=1;rounded=0;exitX=0.5;exitY=1;exitDx=0;exitDy=0;" edge="1" parent="WIyWlLk6GJQsqaUBKTNV-1">
          <mxGeometry width="50" height="50" relative="1" as="geometry">
            <mxPoint x="649.5" y="210" as="sourcePoint" />
            <mxPoint x="649.5" y="490" as="targetPoint" />
          </mxGeometry>
        </mxCell>
        <mxCell id="xai1oZRnohtGifXalHaM-43" value="" style="endArrow=none;html=1;rounded=0;" edge="1" parent="WIyWlLk6GJQsqaUBKTNV-1" target="xai1oZRnohtGifXalHaM-44">
          <mxGeometry width="50" height="50" relative="1" as="geometry">
            <mxPoint x="970.5" y="250" as="sourcePoint" />
            <mxPoint x="1020.5" y="250" as="targetPoint" />
          </mxGeometry>
        </mxCell>
        <mxCell id="xai1oZRnohtGifXalHaM-44" value="id" style="ellipse;whiteSpace=wrap;html=1;" vertex="1" parent="WIyWlLk6GJQsqaUBKTNV-1">
          <mxGeometry x="1020.5" y="230" width="110" height="40" as="geometry" />
        </mxCell>
        <mxCell id="xai1oZRnohtGifXalHaM-45" value="" style="endArrow=none;html=1;rounded=0;" edge="1" parent="WIyWlLk6GJQsqaUBKTNV-1">
          <mxGeometry width="50" height="50" relative="1" as="geometry">
            <mxPoint x="970.5" y="310" as="sourcePoint" />
            <mxPoint x="1030.5" y="310" as="targetPoint" />
          </mxGeometry>
        </mxCell>
        <mxCell id="xai1oZRnohtGifXalHaM-46" value="" style="endArrow=none;html=1;rounded=0;" edge="1" parent="WIyWlLk6GJQsqaUBKTNV-1">
          <mxGeometry width="50" height="50" relative="1" as="geometry">
            <mxPoint x="970.5" y="369.5" as="sourcePoint" />
            <mxPoint x="1030.5" y="369.5" as="targetPoint" />
          </mxGeometry>
        </mxCell>
        <mxCell id="xai1oZRnohtGifXalHaM-47" value="" style="endArrow=none;html=1;rounded=0;" edge="1" parent="WIyWlLk6GJQsqaUBKTNV-1">
          <mxGeometry width="50" height="50" relative="1" as="geometry">
            <mxPoint x="970.5" y="429.5" as="sourcePoint" />
            <mxPoint x="1030.5" y="429.5" as="targetPoint" />
          </mxGeometry>
        </mxCell>
        <mxCell id="xai1oZRnohtGifXalHaM-48" value="" style="endArrow=none;html=1;rounded=0;" edge="1" parent="WIyWlLk6GJQsqaUBKTNV-1">
          <mxGeometry width="50" height="50" relative="1" as="geometry">
            <mxPoint x="970.5" y="490" as="sourcePoint" />
            <mxPoint x="1030.5" y="490" as="targetPoint" />
          </mxGeometry>
        </mxCell>
        <mxCell id="xai1oZRnohtGifXalHaM-49" value="название" style="ellipse;whiteSpace=wrap;html=1;" vertex="1" parent="WIyWlLk6GJQsqaUBKTNV-1">
          <mxGeometry x="1020.5" y="290" width="110" height="40" as="geometry" />
        </mxCell>
        <mxCell id="xai1oZRnohtGifXalHaM-50" value="вариант&lt;div&gt;&amp;nbsp;&lt;span style=&quot;background-color: initial;&quot;&gt;подписки&lt;/span&gt;&lt;/div&gt;" style="ellipse;whiteSpace=wrap;html=1;" vertex="1" parent="WIyWlLk6GJQsqaUBKTNV-1">
          <mxGeometry x="1020.5" y="350" width="110" height="40" as="geometry" />
        </mxCell>
        <mxCell id="xai1oZRnohtGifXalHaM-51" value="количество&lt;div&gt;фильмов&lt;/div&gt;" style="ellipse;whiteSpace=wrap;html=1;" vertex="1" parent="WIyWlLk6GJQsqaUBKTNV-1">
          <mxGeometry x="1020.5" y="410" width="110" height="40" as="geometry" />
        </mxCell>
        <mxCell id="xai1oZRnohtGifXalHaM-52" value="количество&lt;div&gt;пользователей&lt;/div&gt;" style="ellipse;whiteSpace=wrap;html=1;" vertex="1" parent="WIyWlLk6GJQsqaUBKTNV-1">
          <mxGeometry x="1020.5" y="470" width="110" height="40" as="geometry" />
        </mxCell>
        <mxCell id="xai1oZRnohtGifXalHaM-53" value="" style="endArrow=none;html=1;rounded=0;exitX=0.5;exitY=1;exitDx=0;exitDy=0;" edge="1" parent="WIyWlLk6GJQsqaUBKTNV-1">
          <mxGeometry width="50" height="50" relative="1" as="geometry">
            <mxPoint x="970" y="210" as="sourcePoint" />
            <mxPoint x="970" y="490" as="targetPoint" />
          </mxGeometry>
        </mxCell>
      </root>
    </mxGraphModel>
  </diagram>
</mxfile>
